<?xml version="1.0" encoding="utf-8"?>
<svg id="svg2" viewBox="0 0 500 670" xmlns="http://www.w3.org/2000/svg">
  <desc>Source: openclipart.org/detail/209545</desc>
  <defs/>
  <ellipse style="fill: rgb(255, 212, 0); stroke: rgb(246, 172, 2);" cx="250.449" cy="303.898" rx="137.715" ry="142.199"/>
  <path style="fill: rgb(216, 216, 216); stroke: rgb(251, 195, 0);" d="M 262.62 141.345 C 262.62 128.569 254.933 113.24 254.933 101.632"/>
  <path style="fill: rgb(216, 216, 216); stroke: rgb(251, 195, 0);" d="M 316.424 150.312 C 322.087 147.481 322.216 139.841 325.392 138.783 C 334.063 135.892 348.451 114.28 348.451 104.194"/>
  <path style="fill: rgb(216, 216, 216); stroke: rgb(251, 195, 0);" d="M 363.824 181.058 C 367.606 169.711 387.365 147.268 395.851 138.783"/>
  <path style="fill: rgb(216, 216, 216); stroke: rgb(251, 195, 0);" d="M 397.132 215.647 C 406.666 215.647 433.402 208.841 439.407 202.836"/>
  <path style="fill: rgb(216, 216, 216); stroke: rgb(251, 195, 0);" d="M 411.224 247.674 C 432.049 247.674 444.191 241.268 463.748 241.268"/>
  <path style="fill: rgb(216, 216, 216); stroke: rgb(251, 195, 0);" d="M 418.91 283.544 C 440.477 283.544 458.683 280.982 479.12 280.982"/>
  <path style="fill: rgb(216, 216, 216); stroke: rgb(251, 195, 0);" d="M 417.629 329.662 C 433.087 334.815 459.716 333.505 475.277 333.505"/>
  <path style="fill: rgb(216, 216, 216); stroke: rgb(251, 195, 0);" d="M 408.662 364.251 C 414.31 375.549 438.163 378.885 447.094 386.029 C 451.456 389.519 455.213 396.494 459.904 398.84 C 464.196 400.986 470.153 402.829 470.153 409.089"/>
  <path style="fill: rgb(216, 216, 216); stroke: rgb(251, 195, 0);" d="M 386.883 398.84 C 396.056 403.426 396.098 415.741 403.537 423.18 C 411.411 431.054 421.472 442.592 421.472 455.207"/>
  <path style="fill: rgb(216, 216, 216); stroke: rgb(251, 195, 0);" d="M 363.824 430.867 C 363.824 451.853 371.51 463.441 371.51 484.672"/>
  <path style="fill: rgb(216, 216, 216); stroke: rgb(251, 195, 0);" d="M 297.208 461.612 C 297.208 481.836 299.771 498.831 299.771 517.98"/>
  <path style="fill: rgb(216, 216, 216); stroke: rgb(251, 195, 0);" d="M 244.685 482.11 C 244.685 489.824 248.027 507.451 244.685 514.136 C 242.775 517.956 239.56 522.682 239.56 525.666"/>
  <path style="fill: rgb(216, 216, 216); stroke: rgb(251, 195, 0);" d="M 206.252 471.861 C 206.252 480.838 205.312 475.364 199.847 480.829 C 195.583 485.092 198.541 494.971 196.004 500.045 C 194.193 503.666 187.036 514.014 187.036 515.417"/>
  <path style="fill: rgb(216, 216, 216); stroke: rgb(251, 195, 0);" d="M 170.382 461.612 C 165.085 472.208 144.918 496.201 133.231 496.201"/>
  <path style="fill: rgb(216, 216, 216); stroke: rgb(251, 195, 0);" d="M 139.637 438.553 C 136.385 448.308 128.01 460.38 117.859 465.456 C 113.501 467.635 104.602 467.183 101.205 470.58"/>
  <path style="fill: rgb(216, 216, 216); stroke: rgb(251, 195, 0);" d="M 116.577 412.932 C 101.304 412.932 79.594 432.148 61.491 432.148"/>
  <path style="fill: rgb(216, 216, 216); stroke: rgb(251, 195, 0);" d="M 90.956 379.624 C 77.718 379.624 64.481 379.624 51.243 379.624"/>
  <path style="fill: rgb(216, 216, 216); stroke: rgb(251, 195, 0);" d="M 87.113 330.943 C 76.606 330.943 61.579 328.381 55.086 328.381"/>
  <path style="fill: rgb(216, 216, 216); stroke: rgb(251, 195, 0);" d="M 88.394 297.635 C 70.745 297.635 50.442 283.544 35.87 283.544"/>
  <path style="fill: rgb(216, 216, 216); stroke: rgb(251, 195, 0);" d="M 96.08 265.609 C 79.108 261.365 55.75 253.462 44.837 242.549 C 42.014 239.726 30.746 236.364 30.746 232.301"/>
  <path style="fill: rgb(216, 216, 216); stroke: rgb(251, 195, 0);" d="M 94.799 234.863 C 75.836 225.382 62.693 209.162 47.4 193.869"/>
  <path style="fill: rgb(216, 216, 216); stroke: rgb(251, 195, 0);" d="M 122.983 211.804 C 114.238 194.313 98.137 177.991 84.551 164.404"/>
  <path style="fill: rgb(216, 216, 216); stroke: rgb(251, 195, 0);" d="M 148.604 184.901 C 148.604 181.742 134.085 175.932 133.231 173.372 C 128.19 158.248 115.324 143.962 107.61 128.534 C 105.756 124.826 101.205 126.092 101.205 120.848"/>
  <path style="fill: rgb(216, 216, 216); stroke: rgb(251, 195, 0);" d="M 175.507 170.809 C 169.919 154.047 159.512 143.945 151.166 127.253 C 148.072 121.065 138.356 114.786 138.356 106.756"/>
  <path style="fill: rgb(216, 216, 216); stroke: rgb(251, 195, 0);" d="M 201.128 152.874 C 195.697 147.444 197.109 138.607 192.161 133.658 C 184.025 125.523 172.945 99.714 172.945 84.978"/>
  <path style="fill: rgb(216, 216, 216); stroke: rgb(251, 195, 0);" d="M 222.906 147.75 C 222.906 144.677 215.554 132.712 212.658 129.815 C 204.007 121.164 211.418 95.268 202.409 86.259"/>
  <path style="fill: rgb(216, 216, 216); stroke: rgb(0, 0, 0);" d="M 288.241 137.502 C 292.021 126.161 294.532 110.713 301.052 104.194 C 303.332 101.914 302.805 93.945 306.176 93.945"/>
</svg>